<svg width="56" height="56" viewBox="0 0 56 56" fill="none" xmlns="http://www.w3.org/2000/svg">
<rect x="11.7148" y="11.7168" width="4.13514" height="4.13514" fill="white"/>
<rect x="11.7148" y="18.6074" width="4.13514" height="4.13514" fill="white"/>
<rect x="11.7148" y="25.5" width="4.13514" height="4.13514" fill="white"/>
<rect x="11.7148" y="32.3926" width="4.13514" height="4.13514" fill="white"/>
<rect x="11.7148" y="39.2832" width="4.13514" height="4.13514" fill="white"/>
<rect x="11.7148" y="46.1758" width="4.13514" height="4.13514" fill="white"/>
<rect x="18.6055" y="46.1758" width="4.13514" height="4.13514" fill="white"/>
<rect x="25.5" y="46.1758" width="4.13514" height="4.13514" fill="white"/>
<rect x="32.3906" y="46.1758" width="4.13514" height="4.13514" fill="white"/>
<rect x="39.2812" y="46.1758" width="4.13514" height="4.13514" fill="white"/>
<rect x="39.2812" y="39.2832" width="4.13514" height="4.13514" fill="white"/>
<rect x="39.2812" y="32.3926" width="4.13514" height="4.13514" fill="white"/>
<rect x="39.2812" y="25.5" width="4.13514" height="4.13514" fill="white"/>
<rect x="39.2812" y="18.6074" width="4.13514" height="4.13514" fill="white"/>
<rect x="39.2812" y="11.7168" width="4.13514" height="4.13514" fill="white"/>
<rect x="32.3906" y="11.7168" width="4.13514" height="4.13514" fill="white"/>
<rect x="18.6055" y="4.82422" width="4.13514" height="4.13514" fill="white"/>
<rect x="25.5" y="4.82422" width="4.13514" height="4.13514" fill="white"/>
<rect x="32.3906" y="4.82422" width="4.13514" height="4.13514" fill="white"/>
<rect x="18.6055" y="11.7168" width="4.13514" height="4.13514" fill="white"/>
<rect x="25.5" y="39.2832" width="4.13514" height="4.13514" fill="white"/>
<rect x="25.5" y="32.3926" width="4.13514" height="4.13514" fill="white"/>
<rect x="18.6055" y="39.2832" width="4.13514" height="4.13514" fill="white"/>
<rect x="18.6055" y="32.3926" width="4.13514" height="4.13514" fill="white"/>
<rect x="32.3906" y="39.2832" width="4.13514" height="4.13514" fill="white"/>
<rect x="32.3906" y="32.3926" width="4.13514" height="4.13514" fill="white"/>
</svg>
